<?xml version="1.0" encoding="UTF-8" standalone="no"?>
<!-- Created with Inkscape (http://www.inkscape.org/) -->

<svg
   xmlns:dc="http://purl.org/dc/elements/1.1/"
   xmlns:cc="http://creativecommons.org/ns#"
   xmlns:rdf="http://www.w3.org/1999/02/22-rdf-syntax-ns#"
   xmlns:svg="http://www.w3.org/2000/svg"
   xmlns="http://www.w3.org/2000/svg"
   xmlns:xlink="http://www.w3.org/1999/xlink"
   xmlns:sodipodi="http://sodipodi.sourceforge.net/DTD/sodipodi-0.dtd"
   xmlns:inkscape="http://www.inkscape.org/namespaces/inkscape"
   width="120"
   height="50"
   viewBox="0 0 120 50.000001"
   id="svg4264"
   version="1.1"
   inkscape:version="0.91 r13725"
   sodipodi:docname="nishchar-txt.svg">
  <defs
     id="defs4266">
    <linearGradient
       inkscape:collect="always"
       id="linearGradient4873">
      <stop
         style="stop-color:#00ff00;stop-opacity:1"
         offset="0"
         id="stop4875" />
      <stop
         style="stop-color:#008000;stop-opacity:1"
         offset="1"
         id="stop4877" />
    </linearGradient>
    <radialGradient
       inkscape:collect="always"
       xlink:href="#linearGradient4873"
       id="radialGradient4883"
       gradientUnits="userSpaceOnUse"
       gradientTransform="matrix(1,0,0,0.32427883,0,694.40777)"
       cx="60.130325"
       cy="1027.6543"
       fx="60.130325"
       fy="1027.6543"
       r="52.616756" />
    <radialGradient
       inkscape:collect="always"
       xlink:href="#linearGradient4873"
       id="radialGradient4885"
       gradientUnits="userSpaceOnUse"
       gradientTransform="matrix(1,0,0,0.32427883,0,694.40777)"
       cx="60.130325"
       cy="1027.6543"
       fx="60.130325"
       fy="1027.6543"
       r="52.616756" />
    <radialGradient
       inkscape:collect="always"
       xlink:href="#linearGradient4873"
       id="radialGradient4887"
       gradientUnits="userSpaceOnUse"
       gradientTransform="matrix(1,0,0,0.32427883,0,694.40777)"
       cx="60.130325"
       cy="1027.6543"
       fx="60.130325"
       fy="1027.6543"
       r="52.616756" />
    <radialGradient
       inkscape:collect="always"
       xlink:href="#linearGradient4873"
       id="radialGradient4889"
       gradientUnits="userSpaceOnUse"
       gradientTransform="matrix(1,0,0,0.32427883,0,694.40777)"
       cx="60.130325"
       cy="1027.6543"
       fx="60.130325"
       fy="1027.6543"
       r="52.616756" />
    <radialGradient
       inkscape:collect="always"
       xlink:href="#linearGradient4873"
       id="radialGradient4891"
       gradientUnits="userSpaceOnUse"
       gradientTransform="matrix(1,0,0,0.32427883,0,694.40777)"
       cx="60.130325"
       cy="1027.6543"
       fx="60.130325"
       fy="1027.6543"
       r="52.616756" />
    <radialGradient
       inkscape:collect="always"
       xlink:href="#linearGradient4873"
       id="radialGradient4893"
       gradientUnits="userSpaceOnUse"
       gradientTransform="matrix(1,0,0,0.32427883,0,694.40777)"
       cx="60.130325"
       cy="1027.6543"
       fx="60.130325"
       fy="1027.6543"
       r="52.616756" />
    <filter
       inkscape:collect="always"
       style="color-interpolation-filters:sRGB"
       id="filter5153"
       x="-0.18935295"
       width="1.3787059"
       y="-0.14993743"
       height="1.2998749">
      <feGaussianBlur
         inkscape:collect="always"
         stdDeviation="2.0903777"
         id="feGaussianBlur5155" />
    </filter>
    <filter
       inkscape:collect="always"
       style="color-interpolation-filters:sRGB"
       id="filter5157"
       x="-0.21490282"
       width="1.4298056"
       y="-0.2126709"
       height="1.4253418">
      <feGaussianBlur
         inkscape:collect="always"
         stdDeviation="2.0903777"
         id="feGaussianBlur5159" />
    </filter>
    <filter
       inkscape:collect="always"
       style="color-interpolation-filters:sRGB"
       id="filter5161"
       x="-0.1617835"
       width="1.323567"
       y="-0.20684009"
       height="1.4136802">
      <feGaussianBlur
         inkscape:collect="always"
         stdDeviation="2.0903777"
         id="feGaussianBlur5163" />
    </filter>
    <filter
       inkscape:collect="always"
       style="color-interpolation-filters:sRGB"
       id="filter5165"
       x="-0.3341263"
       width="1.6682526"
       y="-0.2126709"
       height="1.4253418">
      <feGaussianBlur
         inkscape:collect="always"
         stdDeviation="2.0903777"
         id="feGaussianBlur5167" />
    </filter>
    <filter
       inkscape:collect="always"
       style="color-interpolation-filters:sRGB"
       id="filter5169"
       x="-0.17290735"
       width="1.3458147"
       y="-0.2126709"
       height="1.4253418">
      <feGaussianBlur
         inkscape:collect="always"
         stdDeviation="2.0903777"
         id="feGaussianBlur5171" />
    </filter>
    <filter
       inkscape:collect="always"
       style="color-interpolation-filters:sRGB"
       id="filter5173"
       x="-0.29075093"
       width="1.5815019"
       y="-0.2077394"
       height="1.4154788">
      <feGaussianBlur
         inkscape:collect="always"
         stdDeviation="2.0903777"
         id="feGaussianBlur5175" />
    </filter>
  </defs>
  <sodipodi:namedview
     id="base"
     pagecolor="#ffffff"
     bordercolor="#666666"
     borderopacity="1.0"
     inkscape:pageopacity="0.0"
     inkscape:pageshadow="2"
     inkscape:zoom="2.8284271"
     inkscape:cx="17.282828"
     inkscape:cy="-45.685425"
     inkscape:document-units="px"
     inkscape:current-layer="layer1"
     showgrid="false"
     units="px"
     inkscape:window-width="1366"
     inkscape:window-height="719"
     inkscape:window-x="0"
     inkscape:window-y="23"
     inkscape:window-maximized="1" />
  <metadata
     id="metadata4269">
    <rdf:RDF>
      <cc:Work
         rdf:about="">
        <dc:format>image/svg+xml</dc:format>
        <dc:type
           rdf:resource="http://purl.org/dc/dcmitype/StillImage" />
        <dc:title></dc:title>
      </cc:Work>
    </rdf:RDF>
  </metadata>
  <g
     inkscape:label="Layer 1"
     inkscape:groupmode="layer"
     id="layer1"
     transform="translate(0,-1002.3621)">
    <path
       d="m 22.528568,1024.3818 0,-0.56 -0.945,-1.085 -1.61,-2.275 -2.835,0 c -0.35,-0.735 -0.525,-1.54 -0.525,-2.275 0,-2.205 2.03,-3.745 5.39,-3.745 3.535,0 7.385,1.295 10.605,4.13 l 1.4,-1.505 c -4.41,-4.375 -9.415,-6.475 -14,-6.475 -4.55,0 -7.595,2.345 -7.595,5.46 0,1.435 0.63,2.94 1.75,4.235 l 0,0.175 -6.6500003,0 0,0.56 0.945,1.085 1.6100003,2.275 2.975,0 0,17.08 2.24,1.33 1.61,1.26 0.805,0 0,-19.67 4.83,0 z"
       style="font-style:normal;font-variant:normal;font-weight:bold;font-stretch:normal;font-size:35px;line-height:125%;font-family:'ITF Devanagari';-inkscape-font-specification:'ITF Devanagari Bold';text-align:center;letter-spacing:0px;word-spacing:0px;text-anchor:middle;fill:#000000;fill-opacity:1;stroke:none;stroke-width:1px;stroke-linecap:butt;stroke-linejoin:miter;stroke-opacity:1;filter:url(#filter5153);opacity:1"
       id="path4901"
       inkscape:connector-curvature="0" />
    <path
       inkscape:connector-curvature="0"
       id="path4861"
       style="font-style:normal;font-variant:normal;font-weight:bold;font-stretch:normal;font-size:35px;line-height:125%;font-family:'ITF Devanagari';-inkscape-font-specification:'ITF Devanagari Bold';text-align:center;letter-spacing:0px;word-spacing:0px;text-anchor:middle;fill:url(#radialGradient4883);fill-opacity:1;stroke:none;stroke-width:1px;stroke-linecap:butt;stroke-linejoin:miter;stroke-opacity:1"
       d="m 22.528568,1024.3818 0,-0.56 -0.945,-1.085 -1.61,-2.275 -2.835,0 c -0.35,-0.735 -0.525,-1.54 -0.525,-2.275 0,-2.205 2.03,-3.745 5.39,-3.745 3.535,0 7.385,1.295 10.605,4.13 l 1.4,-1.505 c -4.41,-4.375 -9.415,-6.475 -14,-6.475 -4.55,0 -7.595,2.345 -7.595,5.46 0,1.435 0.63,2.94 1.75,4.235 l 0,0.175 -6.6500003,0 0,0.56 0.945,1.085 1.6100003,2.275 2.975,0 0,17.08 2.24,1.33 1.61,1.26 0.805,0 0,-19.67 4.83,0 z" />
    <path
       d="m 33.525677,1042.7918 1.61,1.26 0.805,0 0,-19.67 4.83,0 0,-0.56 -0.945,-1.085 -1.61,-2.275 -20.79,0 0,0.56 0.945,1.085 1.61,2.275 11.305,0 0,4.83 -8.715,0 c -0.875,0 -1.715,0.63 -1.715,1.785 0,1.925 1.015,4.13 2.52,5.845 l 2.345,-0.175 c 0,0 -0.105,-0.945 -0.105,-1.925 0,-1.365 0.14,-1.575 0.63,-1.575 l 5.215,0 c 0,4.13 -0.175,8.295 -0.175,8.295 l 2.24,1.33 z"
       style="font-style:normal;font-variant:normal;font-weight:bold;font-stretch:normal;font-size:35px;line-height:125%;font-family:'ITF Devanagari';-inkscape-font-specification:'ITF Devanagari Bold';text-align:center;letter-spacing:0px;word-spacing:0px;text-anchor:middle;fill:#000000;fill-opacity:1;stroke:none;stroke-width:1px;stroke-linecap:butt;stroke-linejoin:miter;stroke-opacity:1;filter:url(#filter5157);opacity:1"
       id="path4903"
       inkscape:connector-curvature="0" />
    <path
       inkscape:connector-curvature="0"
       id="path4863"
       style="font-style:normal;font-variant:normal;font-weight:bold;font-stretch:normal;font-size:35px;line-height:125%;font-family:'ITF Devanagari';-inkscape-font-specification:'ITF Devanagari Bold';text-align:center;letter-spacing:0px;word-spacing:0px;text-anchor:middle;fill:url(#radialGradient4885);fill-opacity:1;stroke:none;stroke-width:1px;stroke-linecap:butt;stroke-linejoin:miter;stroke-opacity:1"
       d="m 33.525677,1042.7918 1.61,1.26 0.805,0 0,-19.67 4.83,0 0,-0.56 -0.945,-1.085 -1.61,-2.275 -20.79,0 0,0.56 0.945,1.085 1.61,2.275 11.305,0 0,4.83 -8.715,0 c -0.875,0 -1.715,0.63 -1.715,1.785 0,1.925 1.015,4.13 2.52,5.845 l 2.345,-0.175 c 0,0 -0.105,-0.945 -0.105,-1.925 0,-1.365 0.14,-1.575 0.63,-1.575 l 5.215,0 c 0,4.13 -0.175,8.295 -0.175,8.295 l 2.24,1.33 z" />
    <path
       d="m 45.61763,1026.9368 c 0,-1.645 1.05,-2.765 2.275,-2.765 1.295,0 2.345,1.19 2.345,3.605 0,1.05 -0.21,1.995 -0.56,2.835 -1.4,-0.14 -4.06,-1.155 -4.06,-3.675 z m 6.615,15.89 -6.685,-4.69 c 5.075,-0.315 8.855,-4.76 8.855,-8.715 0,-1.645 -0.595,-3.15 -2.38,-5.04 l 5.355,0 c 0,13.195 -0.245,17.08 -0.245,17.08 l 2.31,1.33 1.61,1.26 0.805,0 0,-19.67 4.83,0 0,-0.56 -0.945,-1.085 -1.61,-2.275 -28.455,0 0,0.56 0.945,1.085 1.61,2.275 3.36,0 c -0.875,1.015 -1.05,1.855 -1.05,2.8 0,2.345 2.59,4.375 7.77,5.425 -1.19,1.12 -2.8,1.75 -4.585,1.75 -1.505,0 -2.52,-0.42 -3.08,-0.7 l -1.505,2.625 c 1.785,1.4 2.415,1.61 10.535,8.435 l 2.555,-1.89 z"
       style="font-style:normal;font-variant:normal;font-weight:bold;font-stretch:normal;font-size:35px;line-height:125%;font-family:'ITF Devanagari';-inkscape-font-specification:'ITF Devanagari Bold';text-align:center;letter-spacing:0px;word-spacing:0px;text-anchor:middle;fill:#000000;fill-opacity:1;stroke:none;stroke-width:1px;stroke-linecap:butt;stroke-linejoin:miter;stroke-opacity:1;filter:url(#filter5161);opacity:1"
       id="path4905"
       inkscape:connector-curvature="0" />
    <path
       inkscape:connector-curvature="0"
       id="path4865"
       style="font-style:normal;font-variant:normal;font-weight:bold;font-stretch:normal;font-size:35px;line-height:125%;font-family:'ITF Devanagari';-inkscape-font-specification:'ITF Devanagari Bold';text-align:center;letter-spacing:0px;word-spacing:0px;text-anchor:middle;fill:url(#radialGradient4887);fill-opacity:1;stroke:none;stroke-width:1px;stroke-linecap:butt;stroke-linejoin:miter;stroke-opacity:1"
       d="m 45.61763,1026.9368 c 0,-1.645 1.05,-2.765 2.275,-2.765 1.295,0 2.345,1.19 2.345,3.605 0,1.05 -0.21,1.995 -0.56,2.835 -1.4,-0.14 -4.06,-1.155 -4.06,-3.675 z m 6.615,15.89 -6.685,-4.69 c 5.075,-0.315 8.855,-4.76 8.855,-8.715 0,-1.645 -0.595,-3.15 -2.38,-5.04 l 5.355,0 c 0,13.195 -0.245,17.08 -0.245,17.08 l 2.31,1.33 1.61,1.26 0.805,0 0,-19.67 4.83,0 0,-0.56 -0.945,-1.085 -1.61,-2.275 -28.455,0 0,0.56 0.945,1.085 1.61,2.275 3.36,0 c -0.875,1.015 -1.05,1.855 -1.05,2.8 0,2.345 2.59,4.375 7.77,5.425 -1.19,1.12 -2.8,1.75 -4.585,1.75 -1.505,0 -2.52,-0.42 -3.08,-0.7 l -1.505,2.625 c 1.785,1.4 2.415,1.61 10.535,8.435 l 2.555,-1.89 z" />
    <path
       d="m 76.600833,1024.3818 0,-0.56 -0.945,-1.085 -1.61,-2.275 -12.46,0 0,0.56 0.945,1.085 1.61,2.275 2.975,0 0,17.08 2.24,1.33 1.61,1.26 0.805,0 0,-19.67 4.83,0 z"
       style="font-style:normal;font-variant:normal;font-weight:bold;font-stretch:normal;font-size:35px;line-height:125%;font-family:'ITF Devanagari';-inkscape-font-specification:'ITF Devanagari Bold';text-align:center;letter-spacing:0px;word-spacing:0px;text-anchor:middle;fill:#000000;fill-opacity:1;stroke:none;stroke-width:1px;stroke-linecap:butt;stroke-linejoin:miter;stroke-opacity:1;filter:url(#filter5165);opacity:1"
       id="path4907"
       inkscape:connector-curvature="0" />
    <path
       inkscape:connector-curvature="0"
       id="path4867"
       style="font-style:normal;font-variant:normal;font-weight:bold;font-stretch:normal;font-size:35px;line-height:125%;font-family:'ITF Devanagari';-inkscape-font-specification:'ITF Devanagari Bold';text-align:center;letter-spacing:0px;word-spacing:0px;text-anchor:middle;fill:url(#radialGradient4889);fill-opacity:1;stroke:none;stroke-width:1px;stroke-linecap:butt;stroke-linejoin:miter;stroke-opacity:1"
       d="m 76.600833,1024.3818 0,-0.56 -0.945,-1.085 -1.61,-2.275 -12.46,0 0,0.56 0.945,1.085 1.61,2.275 2.975,0 0,17.08 2.24,1.33 1.61,1.26 0.805,0 0,-19.67 4.83,0 z" />
    <path
       d="m 100.5813,1024.3818 0,-0.56 -0.944998,-1.085 -1.61,-2.275 -26.46,0 0,0.56 0.945,1.085 1.61,2.275 17.01,0 0,7.98 c -2.66,3.29 -5.11,4.48 -6.93,4.48 -1.4,0 -1.82,-0.84 -1.82,-1.785 0,-1.855 1.68,-3.255 2.765,-3.675 l 3.78,0 0,-0.56 -1.015,-1.225 -1.47,-2.135 -12.705,0 0,0.56 0.945,1.085 1.505,2.24 1.12,0 c 1.645,0 2.135,-0.07 2.135,-0.07 -0.7,0.595 -1.19,1.295 -1.19,2.415 0,1.785 1.155,3.22 2.695,4.48 1.365,1.12 2.8,1.995 4.76,1.995 2.135,0 3.815,-0.595 5.635,-2.625 -0.035,1.715 -0.315,3.92 -0.315,3.92 l 2.31,1.33 1.61,1.26 0.805,0 0,-19.67 4.829998,0 z"
       style="font-style:normal;font-variant:normal;font-weight:bold;font-stretch:normal;font-size:35px;line-height:125%;font-family:'ITF Devanagari';-inkscape-font-specification:'ITF Devanagari Bold';text-align:center;letter-spacing:0px;word-spacing:0px;text-anchor:middle;fill:#000000;fill-opacity:1;stroke:none;stroke-width:1px;stroke-linecap:butt;stroke-linejoin:miter;stroke-opacity:1;filter:url(#filter5169);opacity:1"
       id="path4909"
       inkscape:connector-curvature="0" />
    <path
       inkscape:connector-curvature="0"
       id="path4869"
       style="font-style:normal;font-variant:normal;font-weight:bold;font-stretch:normal;font-size:35px;line-height:125%;font-family:'ITF Devanagari';-inkscape-font-specification:'ITF Devanagari Bold';text-align:center;letter-spacing:0px;word-spacing:0px;text-anchor:middle;fill:url(#radialGradient4891);fill-opacity:1;stroke:none;stroke-width:1px;stroke-linecap:butt;stroke-linejoin:miter;stroke-opacity:1"
       d="m 100.5813,1024.3818 0,-0.56 -0.944998,-1.085 -1.61,-2.275 -26.46,0 0,0.56 0.945,1.085 1.61,2.275 17.01,0 0,7.98 c -2.66,3.29 -5.11,4.48 -6.93,4.48 -1.4,0 -1.82,-0.84 -1.82,-1.785 0,-1.855 1.68,-3.255 2.765,-3.675 l 3.78,0 0,-0.56 -1.015,-1.225 -1.47,-2.135 -12.705,0 0,0.56 0.945,1.085 1.505,2.24 1.12,0 c 1.645,0 2.135,-0.07 2.135,-0.07 -0.7,0.595 -1.19,1.295 -1.19,2.415 0,1.785 1.155,3.22 2.695,4.48 1.365,1.12 2.8,1.995 4.76,1.995 2.135,0 3.815,-0.595 5.635,-2.625 -0.035,1.715 -0.315,3.92 -0.315,3.92 l 2.31,1.33 1.61,1.26 0.805,0 0,-19.67 4.829998,0 z" />
    <path
       d="m 110.57708,1043.1768 c -2.66,-2.73 -5.81,-6.195 -5.81,-6.86 0,-0.315 0.14,-0.42 0.42,-0.63 2.275,-1.855 2.835,-2.835 2.835,-4.27 l 0,-7.035 4.725,0 0,-0.56 -0.945,-1.085 -1.61,-2.275 -14.699997,0 0,0.56 0.945,1.085 1.61,2.275 5.319997,0 0,5.705 c 0,0.49 -0.245,1.05 -1.225,1.05 -0.385,0 -1.05,-0.14 -1.61,-0.315 l -1.574997,1.855 c 0.455,0.945 1.644997,2.905 4.129997,5.915 l 4.935,6.02 2.555,-1.435 z"
       style="font-style:normal;font-variant:normal;font-weight:bold;font-stretch:normal;font-size:35px;line-height:125%;font-family:'ITF Devanagari';-inkscape-font-specification:'ITF Devanagari Bold';text-align:center;letter-spacing:0px;word-spacing:0px;text-anchor:middle;fill:#000000;fill-opacity:1;stroke:none;stroke-width:1px;stroke-linecap:butt;stroke-linejoin:miter;stroke-opacity:1;filter:url(#filter5173);opacity:1"
       id="path4911"
       inkscape:connector-curvature="0" />
    <path
       inkscape:connector-curvature="0"
       id="path4871"
       style="font-style:normal;font-variant:normal;font-weight:bold;font-stretch:normal;font-size:35px;line-height:125%;font-family:'ITF Devanagari';-inkscape-font-specification:'ITF Devanagari Bold';text-align:center;letter-spacing:0px;word-spacing:0px;text-anchor:middle;fill:url(#radialGradient4893);fill-opacity:1;stroke:none;stroke-width:1px;stroke-linecap:butt;stroke-linejoin:miter;stroke-opacity:1"
       d="m 110.57708,1043.1768 c -2.66,-2.73 -5.81,-6.195 -5.81,-6.86 0,-0.315 0.14,-0.42 0.42,-0.63 2.275,-1.855 2.835,-2.835 2.835,-4.27 l 0,-7.035 4.725,0 0,-0.56 -0.945,-1.085 -1.61,-2.275 -14.699997,0 0,0.56 0.945,1.085 1.61,2.275 5.319997,0 0,5.705 c 0,0.49 -0.245,1.05 -1.225,1.05 -0.385,0 -1.05,-0.14 -1.61,-0.315 l -1.574997,1.855 c 0.455,0.945 1.644997,2.905 4.129997,5.915 l 4.935,6.02 2.555,-1.435 z" />
  </g>
</svg>
