<?xml version="1.0" encoding="UTF-8" standalone="no"?>
<!-- Created with Inkscape (http://www.inkscape.org/) -->

<svg
   xmlns:dc="http://purl.org/dc/elements/1.1/"
   xmlns:cc="http://creativecommons.org/ns#"
   xmlns:rdf="http://www.w3.org/1999/02/22-rdf-syntax-ns#"
   xmlns:svg="http://www.w3.org/2000/svg"
   xmlns="http://www.w3.org/2000/svg"
   xmlns:sodipodi="http://sodipodi.sourceforge.net/DTD/sodipodi-0.dtd"
   xmlns:inkscape="http://www.inkscape.org/namespaces/inkscape"
   width="120"
   height="50"
   viewBox="0 0 120 50.000001"
   id="svg4264"
   version="1.1"
   inkscape:version="0.91 r13725"
   sodipodi:docname="nishchar-txt.svg">
  <defs
     id="defs4266">
    <filter
       inkscape:collect="always"
       style="color-interpolation-filters:sRGB"
       id="filter5153"
       x="-0.18935295"
       width="1.3787059"
       y="-0.14993743"
       height="1.2998749">
      <feGaussianBlur
         inkscape:collect="always"
         stdDeviation="2.0903777"
         id="feGaussianBlur5155" />
    </filter>
    <filter
       inkscape:collect="always"
       style="color-interpolation-filters:sRGB"
       id="filter5157"
       x="-0.21490282"
       width="1.4298056"
       y="-0.2126709"
       height="1.4253418">
      <feGaussianBlur
         inkscape:collect="always"
         stdDeviation="2.0903777"
         id="feGaussianBlur5159" />
    </filter>
    <filter
       inkscape:collect="always"
       style="color-interpolation-filters:sRGB"
       id="filter5161"
       x="-0.1617835"
       width="1.323567"
       y="-0.20684009"
       height="1.4136802">
      <feGaussianBlur
         inkscape:collect="always"
         stdDeviation="2.0903777"
         id="feGaussianBlur5163" />
    </filter>
    <filter
       inkscape:collect="always"
       style="color-interpolation-filters:sRGB"
       id="filter5165"
       x="-0.3341263"
       width="1.6682526"
       y="-0.2126709"
       height="1.4253418">
      <feGaussianBlur
         inkscape:collect="always"
         stdDeviation="2.0903777"
         id="feGaussianBlur5167" />
    </filter>
    <filter
       inkscape:collect="always"
       style="color-interpolation-filters:sRGB"
       id="filter5169"
       x="-0.17290735"
       width="1.3458147"
       y="-0.2126709"
       height="1.4253418">
      <feGaussianBlur
         inkscape:collect="always"
         stdDeviation="2.0903777"
         id="feGaussianBlur5171" />
    </filter>
    <filter
       inkscape:collect="always"
       style="color-interpolation-filters:sRGB"
       id="filter5173"
       x="-0.29075093"
       width="1.5815019"
       y="-0.2077394"
       height="1.4154788">
      <feGaussianBlur
         inkscape:collect="always"
         stdDeviation="2.0903777"
         id="feGaussianBlur5175" />
    </filter>
  </defs>
  <sodipodi:namedview
     id="base"
     pagecolor="#ffffff"
     bordercolor="#666666"
     borderopacity="1.0"
     inkscape:pageopacity="0.0"
     inkscape:pageshadow="2"
     inkscape:zoom="2.8284271"
     inkscape:cx="8.4439932"
     inkscape:cy="53.309525"
     inkscape:document-units="px"
     inkscape:current-layer="layer1"
     showgrid="false"
     units="px"
     inkscape:window-width="1366"
     inkscape:window-height="719"
     inkscape:window-x="0"
     inkscape:window-y="1"
     inkscape:window-maximized="1" />
  <metadata
     id="metadata4269">
    <rdf:RDF>
      <cc:Work
         rdf:about="">
        <dc:format>image/svg+xml</dc:format>
        <dc:type
           rdf:resource="http://purl.org/dc/dcmitype/StillImage" />
        <dc:title />
      </cc:Work>
    </rdf:RDF>
  </metadata>
  <g
     inkscape:label="Layer 1"
     inkscape:groupmode="layer"
     id="layer1"
     transform="translate(0,-1002.3621)">
    <path
       d="m 22.528568,1024.3818 0,-0.56 -0.945,-1.085 -1.61,-2.275 -2.835,0 c -0.35,-0.735 -0.525,-1.54 -0.525,-2.275 0,-2.205 2.03,-3.745 5.39,-3.745 3.535,0 7.385,1.295 10.605,4.13 l 1.4,-1.505 c -4.41,-4.375 -9.415,-6.475 -14,-6.475 -4.55,0 -7.595,2.345 -7.595,5.46 0,1.435 0.63,2.94 1.75,4.235 l 0,0.175 -6.6500003,0 0,0.56 0.945,1.085 1.6100003,2.275 2.975,0 0,17.08 2.24,1.33 1.61,1.26 0.805,0 0,-19.67 4.83,0 z"
       style="font-style:normal;font-variant:normal;font-weight:bold;font-stretch:normal;font-size:35px;line-height:125%;font-family:'ITF Devanagari';-inkscape-font-specification:'ITF Devanagari Bold';text-align:center;letter-spacing:0px;word-spacing:0px;text-anchor:middle;opacity:0.75;fill:#000000;fill-opacity:1;stroke:none;stroke-width:1px;stroke-linecap:butt;stroke-linejoin:miter;stroke-opacity:1;filter:url(#filter5153)"
       id="path4901"
       inkscape:connector-curvature="0"
       transform="matrix(1.0613449,0,0,1.0613449,-3.6886915,-63.041398)" />
    <path
       inkscape:connector-curvature="0"
       id="path4861"
       style="font-style:normal;font-variant:normal;font-weight:bold;font-stretch:normal;font-size:35px;line-height:125%;font-family:'ITF Devanagari';-inkscape-font-specification:'ITF Devanagari Bold';text-align:center;letter-spacing:0px;word-spacing:0px;text-anchor:middle;opacity:1;fill:#ffffff;fill-opacity:1;stroke:none;stroke-width:1px;stroke-linecap:butt;stroke-linejoin:miter;stroke-opacity:1"
       d="m 20.22189,1023.4306 0,-0.5944 -1.002971,-1.1515 -1.708765,-2.4146 -3.008913,0 c -0.371471,-0.7801 -0.557206,-1.6345 -0.557206,-2.4146 0,-2.3402 2.15453,-3.9747 5.720649,-3.9747 3.751855,0 7.838033,1.3744 11.255563,4.3834 l 1.485883,-1.5974 c -4.680531,-4.6434 -9.992562,-6.8722 -14.858829,-6.8722 -4.829119,0 -8.0609148,2.4889 -8.0609148,5.795 0,1.523 0.6686468,3.1203 1.8573538,4.4948 l 0,0.1857 -7.0579444,0 0,0.5944 1.002971,1.1515 1.7087657,2.4146 3.1575007,0 0,18.1277 2.377413,1.4116 1.708766,1.3373 0.854382,0 0,-20.8766 5.126296,0 z" />
    <path
       d="m 33.525677,1042.7918 1.61,1.26 0.805,0 0,-19.67 4.83,0 0,-0.56 -0.945,-1.085 -1.61,-2.275 -20.79,0 0,0.56 0.945,1.085 1.61,2.275 11.305,0 0,4.83 -8.715,0 c -0.875,0 -1.715,0.63 -1.715,1.785 0,1.925 1.015,4.13 2.52,5.845 l 2.345,-0.175 c 0,0 -0.105,-0.945 -0.105,-1.925 0,-1.365 0.14,-1.575 0.63,-1.575 l 5.215,0 c 0,4.13 -0.175,8.295 -0.175,8.295 l 2.24,1.33 z"
       style="font-style:normal;font-variant:normal;font-weight:bold;font-stretch:normal;font-size:35px;line-height:125%;font-family:'ITF Devanagari';-inkscape-font-specification:'ITF Devanagari Bold';text-align:center;letter-spacing:0px;word-spacing:0px;text-anchor:middle;opacity:0.75;fill:#000000;fill-opacity:1;stroke:none;stroke-width:1px;stroke-linecap:butt;stroke-linejoin:miter;stroke-opacity:1;filter:url(#filter5157)"
       id="path4903"
       inkscape:connector-curvature="0"
       transform="matrix(1.0613449,0,0,1.0613449,-3.6886915,-63.041398)" />
    <path
       inkscape:connector-curvature="0"
       id="path4863"
       style="font-style:normal;font-variant:normal;font-weight:bold;font-stretch:normal;font-size:35px;line-height:125%;font-family:'ITF Devanagari';-inkscape-font-specification:'ITF Devanagari Bold';text-align:center;letter-spacing:0px;word-spacing:0px;text-anchor:middle;opacity:1;fill:#ffffff;fill-opacity:1;stroke:none;stroke-width:1px;stroke-linecap:butt;stroke-linejoin:miter;stroke-opacity:1"
       d="m 31.893616,1042.9699 1.708766,1.3373 0.854382,0 0,-20.8766 5.126297,0 0,-0.5944 -1.002971,-1.1515 -1.708766,-2.4146 -22.065361,0 0,0.5944 1.002971,1.1515 1.708765,2.4146 11.998505,0 0,5.1263 -9.249622,0 c -0.928676,0 -1.820206,0.6686 -1.820206,1.8945 0,2.0431 1.077265,4.3833 2.674589,6.2035 l 2.488854,-0.1857 c 0,0 -0.111441,-1.003 -0.111441,-2.0431 0,-1.4487 0.148588,-1.6716 0.668647,-1.6716 l 5.534914,0 c 0,4.3833 -0.185735,8.8038 -0.185735,8.8038 l 2.377412,1.4116 z" />
    <path
       d="m 45.61763,1026.9368 c 0,-1.645 1.05,-2.765 2.275,-2.765 1.295,0 2.345,1.19 2.345,3.605 0,1.05 -0.21,1.995 -0.56,2.835 -1.4,-0.14 -4.06,-1.155 -4.06,-3.675 z m 6.615,15.89 -6.685,-4.69 c 5.075,-0.315 8.855,-4.76 8.855,-8.715 0,-1.645 -0.595,-3.15 -2.38,-5.04 l 5.355,0 c 0,13.195 -0.245,17.08 -0.245,17.08 l 2.31,1.33 1.61,1.26 0.805,0 0,-19.67 4.83,0 0,-0.56 -0.945,-1.085 -1.61,-2.275 -28.455,0 0,0.56 0.945,1.085 1.61,2.275 3.36,0 c -0.875,1.015 -1.05,1.855 -1.05,2.8 0,2.345 2.59,4.375 7.77,5.425 -1.19,1.12 -2.8,1.75 -4.585,1.75 -1.505,0 -2.52,-0.42 -3.08,-0.7 l -1.505,2.625 c 1.785,1.4 2.415,1.61 10.535,8.435 l 2.555,-1.89 z"
       style="font-style:normal;font-variant:normal;font-weight:bold;font-stretch:normal;font-size:35px;line-height:125%;font-family:'ITF Devanagari';-inkscape-font-specification:'ITF Devanagari Bold';text-align:center;letter-spacing:0px;word-spacing:0px;text-anchor:middle;opacity:0.75;fill:#000000;fill-opacity:1;stroke:none;stroke-width:1px;stroke-linecap:butt;stroke-linejoin:miter;stroke-opacity:1;filter:url(#filter5161)"
       id="path4905"
       inkscape:connector-curvature="0"
       transform="matrix(1.0613449,0,0,1.0613449,-3.6886915,-63.041398)" />
    <path
       inkscape:connector-curvature="0"
       id="path4865"
       style="font-style:normal;font-variant:normal;font-weight:bold;font-stretch:normal;font-size:35px;line-height:125%;font-family:'ITF Devanagari';-inkscape-font-specification:'ITF Devanagari Bold';text-align:center;letter-spacing:0px;word-spacing:0px;text-anchor:middle;opacity:1;fill:#ffffff;fill-opacity:1;stroke:none;stroke-width:1px;stroke-linecap:butt;stroke-linejoin:miter;stroke-opacity:1"
       d="m 44.72735,1026.1423 c 0,-1.7459 1.114412,-2.9346 2.414559,-2.9346 1.374442,0 2.488854,1.263 2.488854,3.8261 0,1.1144 -0.222882,2.1174 -0.594353,3.009 -1.485883,-0.1486 -4.30906,-1.2259 -4.30906,-3.9005 z m 7.020796,16.8648 -7.095091,-4.9777 c 5.386326,-0.3344 9.39821,-5.052 9.39821,-9.2496 0,-1.746 -0.6315,-3.3433 -2.526001,-5.3492 l 5.683502,0 c 0,14.0044 -0.260029,18.1277 -0.260029,18.1277 l 2.451706,1.4116 1.708766,1.3373 0.854383,0 0,-20.8766 5.126296,0 0,-0.5944 -1.002971,-1.1515 -1.708766,-2.4146 -30.20057,0 0,0.5944 1.002971,1.1515 1.708765,2.4146 3.566119,0 c -0.928677,1.0772 -1.114412,1.9688 -1.114412,2.9717 0,2.4889 2.748883,4.6434 8.24665,5.7578 -1.263,1.1887 -2.971766,1.8574 -4.866266,1.8574 -1.597325,0 -2.67459,-0.4458 -3.268943,-0.743 l -1.597324,2.7861 c 1.894501,1.4859 2.563148,1.7087 11.181269,8.9524 l 2.711736,-2.0059 z" />
    <path
       d="m 76.600833,1024.3818 0,-0.56 -0.945,-1.085 -1.61,-2.275 -12.46,0 0,0.56 0.945,1.085 1.61,2.275 2.975,0 0,17.08 2.24,1.33 1.61,1.26 0.805,0 0,-19.67 4.83,0 z"
       style="font-style:normal;font-variant:normal;font-weight:bold;font-stretch:normal;font-size:35px;line-height:125%;font-family:'ITF Devanagari';-inkscape-font-specification:'ITF Devanagari Bold';text-align:center;letter-spacing:0px;word-spacing:0px;text-anchor:middle;opacity:0.75;fill:#000000;fill-opacity:1;stroke:none;stroke-width:1px;stroke-linecap:butt;stroke-linejoin:miter;stroke-opacity:1;filter:url(#filter5165)"
       id="path4907"
       inkscape:connector-curvature="0"
       transform="matrix(1.0613449,0,0,1.0613449,-3.6886915,-63.041398)" />
    <path
       inkscape:connector-curvature="0"
       id="path4867"
       style="font-style:normal;font-variant:normal;font-weight:bold;font-stretch:normal;font-size:35px;line-height:125%;font-family:'ITF Devanagari';-inkscape-font-specification:'ITF Devanagari Bold';text-align:center;letter-spacing:0px;word-spacing:0px;text-anchor:middle;opacity:1;fill:#ffffff;fill-opacity:1;stroke:none;stroke-width:1px;stroke-linecap:butt;stroke-linejoin:miter;stroke-opacity:1"
       d="m 77.611216,1023.4306 0,-0.5944 -1.002971,-1.1515 -1.708766,-2.4146 -13.224358,0 0,0.5944 1.002971,1.1515 1.708765,2.4146 3.157502,0 0,18.1277 2.377412,1.4116 1.708766,1.3373 0.854382,0 0,-20.8766 5.126297,0 z" />
    <path
       d="m 100.5813,1024.3818 0,-0.56 -0.944998,-1.085 -1.61,-2.275 -26.46,0 0,0.56 0.945,1.085 1.61,2.275 17.01,0 0,7.98 c -2.66,3.29 -5.11,4.48 -6.93,4.48 -1.4,0 -1.82,-0.84 -1.82,-1.785 0,-1.855 1.68,-3.255 2.765,-3.675 l 3.78,0 0,-0.56 -1.015,-1.225 -1.47,-2.135 -12.705,0 0,0.56 0.945,1.085 1.505,2.24 1.12,0 c 1.645,0 2.135,-0.07 2.135,-0.07 -0.7,0.595 -1.19,1.295 -1.19,2.415 0,1.785 1.155,3.22 2.695,4.48 1.365,1.12 2.8,1.995 4.76,1.995 2.135,0 3.815,-0.595 5.635,-2.625 -0.035,1.715 -0.315,3.92 -0.315,3.92 l 2.31,1.33 1.61,1.26 0.805,0 0,-19.67 4.829998,0 z"
       style="font-style:normal;font-variant:normal;font-weight:bold;font-stretch:normal;font-size:35px;line-height:125%;font-family:'ITF Devanagari';-inkscape-font-specification:'ITF Devanagari Bold';text-align:center;letter-spacing:0px;word-spacing:0px;text-anchor:middle;opacity:0.75;fill:#000000;fill-opacity:1;stroke:none;stroke-width:1px;stroke-linecap:butt;stroke-linejoin:miter;stroke-opacity:1;filter:url(#filter5169)"
       id="path4909"
       inkscape:connector-curvature="0"
       transform="matrix(1.0613449,0,0,1.0613449,-3.6886915,-63.041398)" />
    <path
       inkscape:connector-curvature="0"
       id="path4869"
       style="font-style:normal;font-variant:normal;font-weight:bold;font-stretch:normal;font-size:35px;line-height:125%;font-family:'ITF Devanagari';-inkscape-font-specification:'ITF Devanagari Bold';text-align:center;letter-spacing:0px;word-spacing:0px;text-anchor:middle;opacity:1;fill:#ffffff;fill-opacity:1;stroke:none;stroke-width:1px;stroke-linecap:butt;stroke-linejoin:miter;stroke-opacity:1"
       d="m 103.06276,1023.4306 0,-0.5944 -1.00297,-1.1515 -1.70876,-2.4146 -28.083189,0 0,0.5944 1.002971,1.1515 1.708766,2.4146 18.053477,0 0,8.4695 c -2.823177,3.4918 -5.423472,4.7548 -7.35512,4.7548 -1.485883,0 -1.931648,-0.8915 -1.931648,-1.8945 0,-1.9688 1.78306,-3.4546 2.934619,-3.9004 l 4.011884,0 0,-0.5944 -1.077265,-1.3001 -1.560177,-2.266 -13.484388,0 0,0.5944 1.002971,1.1515 1.597324,2.3774 1.188706,0 c 1.745913,0 2.265972,-0.074 2.265972,-0.074 -0.742942,0.6315 -1.263001,1.3745 -1.263001,2.5632 0,1.8945 1.225854,3.4175 2.860325,4.7548 1.448736,1.1887 2.971766,2.1174 5.052002,2.1174 2.265971,0 4.049031,-0.6315 5.980679,-2.786 -0.03715,1.8202 -0.334324,4.1604 -0.334324,4.1604 l 2.451707,1.4116 1.708765,1.3373 0.854383,0 0,-20.8766 5.126291,0 z" />
    <path
       d="m 110.57708,1043.1768 c -2.66,-2.73 -5.81,-6.195 -5.81,-6.86 0,-0.315 0.14,-0.42 0.42,-0.63 2.275,-1.855 2.835,-2.835 2.835,-4.27 l 0,-7.035 4.725,0 0,-0.56 -0.945,-1.085 -1.61,-2.275 -14.699997,0 0,0.56 0.945,1.085 1.61,2.275 5.319997,0 0,5.705 c 0,0.49 -0.245,1.05 -1.225,1.05 -0.385,0 -1.05,-0.14 -1.61,-0.315 l -1.574997,1.855 c 0.455,0.945 1.644997,2.905 4.129997,5.915 l 4.935,6.02 2.555,-1.435 z"
       style="font-style:normal;font-variant:normal;font-weight:bold;font-stretch:normal;font-size:35px;line-height:125%;font-family:'ITF Devanagari';-inkscape-font-specification:'ITF Devanagari Bold';text-align:center;letter-spacing:0px;word-spacing:0px;text-anchor:middle;opacity:0.75;fill:#000000;fill-opacity:1;stroke:none;stroke-width:1px;stroke-linecap:butt;stroke-linejoin:miter;stroke-opacity:1;filter:url(#filter5173)"
       id="path4911"
       inkscape:connector-curvature="0"
       transform="matrix(1.0613449,0,0,1.0613449,-3.6886915,-63.041398)" />
    <path
       inkscape:connector-curvature="0"
       id="path4871"
       style="font-style:normal;font-variant:normal;font-weight:bold;font-stretch:normal;font-size:35px;line-height:125%;font-family:'ITF Devanagari';-inkscape-font-specification:'ITF Devanagari Bold';text-align:center;letter-spacing:0px;word-spacing:0px;text-anchor:middle;opacity:1;fill:#ffffff;fill-opacity:1;stroke:none;stroke-width:1px;stroke-linecap:butt;stroke-linejoin:miter;stroke-opacity:1"
       d="m 113.67173,1043.3785 c -2.82317,-2.8974 -6.16641,-6.575 -6.16641,-7.2808 0,-0.3343 0.14859,-0.4457 0.44576,-0.6686 2.41456,-1.9688 3.00892,-3.0089 3.00892,-4.532 l 0,-7.4665 5.01485,0 0,-0.5944 -1.00297,-1.1515 -1.70876,-2.4146 -15.601772,0 0,0.5944 1.002971,1.1515 1.708761,2.4146 5.64636,0 0,6.0549 c 0,0.5201 -0.26003,1.1145 -1.30015,1.1145 -0.40862,0 -1.11441,-0.1486 -1.70877,-0.3344 l -1.67161,1.9688 c 0.48291,1.003 1.74591,3.0832 4.38335,6.2779 l 5.23774,6.3893 2.71173,-1.5231 z" />
  </g>
</svg>
